{"title":"Ice_Age-2_The_Meltdown_(2006)_HD_480p_AC3_Hindi [.Dude.]","uid":6611009,"size":548413073,"categoryP":"video","categoryS":"movies","magnet":"?xt=urn:btih:3d6843e19144d9932e47b6ecef752207b6d5a540&amp;dn=Ice_Age-2_The_Meltdown_%282006%29_HD_480p_AC3_Hindi+%5B.Dude.%5D&amp;tr=udp%3A%2F%2Ftracker.openbittorrent.com%3A80&amp;tr=udp%3A%2F%2Fopen.demonii.com%3A1337&amp;tr=udp%3A%2F%2Ftracker.coppersurfer.tk%3A6969&amp;tr=udp%3A%2F%2Fexodus.desync.com%3A6969","seeders":0,"leechers":1,"uploader":".Dude.","files":-1,"time":1313591230,"description":"General\nUnique ID                       : 239752098032518903178145533313999264597 (0xB45E93115234870DB582B9131BD15B55)\nComplete name                   :Age-2 The Meltdown (2006)  m-HD  480p  AC3  Hindi  BHATTI87\\Ice Age-2 The Meltdown (2006)  m-HD  480p  AC3  Hindi  BHATTI87.mkv\nFormat                          : Matroska\nFile size                       : 493 MiB\nDuration                        : 1h 26mn\nOverall bit rate                : 793 Kbps\nEncoded date                    : UTC 2011-08-04 18:29:55\nWriting application             : mkvmerge v4.6.0 ('Still Crazy After All These Years') built on Mar 10 2011 02:50:32\nWriting library                 : libebml v1.2.0 + libmatroska v1.1.0\n\nVideo\nID                              : 1\nFormat                          : AVC\nFormat/Info                     : Advanced Video Codec\nFormat profile                  : &lt;a class=&quot;__cf_email__&quot; href=&quot;/cdn-cgi/l/email-protection&quot; data-cfemail=&quot;84ccede3ecc4c8b7aab5&quot;&gt;[email&amp;#160;protected]&lt;/a&gt;&lt;script cf-hash='f9e31' type=&quot;text/javascript&quot;&gt;\n/* &lt;![CDATA[ */!function(){try{var t=&quot;currentScript&quot;in document?document.currentScript:function(){for(var t=document.getElementsByTagName(&quot;script&quot;),e=t.length;e--;)if(t[e].getAttribute(&quot;cf-hash&quot;))return t[e]}();if(t&amp;&amp;t.previousSibling){var e,r,n,i,c=t.previousSibling,a=c.getAttribute(&quot;data-cfemail&quot;);if(a){for(e=&quot;&quot;,r=parseInt(a.substr(0,2),16),n=2;a.length-n;n+=2)i=parseInt(a.substr(n,2),16)^r,e+=String.fromCharCode(i);e=document.createTextNode(e),c.parentNode.replaceChild(e,c)}}}catch(u){}}();/* ]]&gt; */&lt;/script&gt;\nFormat settings, CABAC          : Yes\nFormat settings, ReFrames       : 5 frames\nCodec ID                        : V_MPEG4/ISO/AVC\nDuration                        : 1h 26mn\nBit rate                        : 663 Kbps\nWidth                           : 848 pixels\nHeight                          : 368 pixels\nDisplay aspect ratio            : 2.35:1\nFrame rate                      : 23.976 fps\nColor space                     : YUV\nChroma subsampling              : 4:2:0\nBit depth                       : 8 bits\nScan type                       : Progressive\nBits/(Pixel*Frame)              : 0.089\nStream size                     : 403 MiB (82%)\nWriting library                 : x264 core 114 r1924 08d04a4\n\nAudio\nID                              : 2\nFormat                          : AC-3\nFormat/Info                     : Audio Coding 3\nMode extension                  : CM (complete main)\nCodec ID                        : A_AC3\nDuration                        : 1h 26mn\nBit rate mode                   : Constant\nBit rate                        : 128 Kbps\nChannel(s)                      : 2 channels\nChannel positions               : Front: L R\nSampling rate                   : 44.1 KHz\nBit depth                       : 16 bits\nCompression mode                : Lossy\nDelay relative to video         : 1s 0ms\nStream size                     : 79.6 MiB (16%)\nLanguage                        : Hindi\n\n\nall credits to BHATTI87\n\nSample Included.\n\nSCreens: &lt;a href=&quot;\nhttp://www.leetleech.org/images/77693956106427252151.jpg&quot; rel=&quot;nofollow&quot; target=&quot;_NEW&quot;&gt;\nhttp://www.leetleech.org/images/77693956106427252151.jpg&lt;/a&gt; &lt;a href=&quot;\nhttp://www.leetleech.org/images/12487494836051313401.jpg&quot; rel=&quot;nofollow&quot; target=&quot;_NEW&quot;&gt;\nhttp://www.leetleech.org/images/12487494836051313401.jpg&lt;/a&gt; &lt;a href=&quot;\nhttp://www.leetleech.org/images/29278752381117585588.jpg&quot; rel=&quot;nofollow&quot; target=&quot;_NEW&quot;&gt;\nhttp://www.leetleech.org/images/29278752381117585588.jpg&lt;/a&gt; &lt;a href=&quot;\nhttp://www.leetleech.org/images/66579386461952220132.jpg&quot; rel=&quot;nofollow&quot; target=&quot;_NEW&quot;&gt;\nhttp://www.leetleech.org/images/66579386461952220132.jpg&lt;/a&gt; &lt;a href=&quot;\nhttp://www.leetleech.org/images/70614242001342684545.jpg&quot; rel=&quot;nofollow&quot; target=&quot;_NEW&quot;&gt;\nhttp://www.leetleech.org/images/70614242001342684545.jpg&lt;/a&gt; &lt;a href=&quot;\nhttp://www.leetleech.org/images/71155142867223485434.jpg&quot; rel=&quot;nofollow&quot; target=&quot;_NEW&quot;&gt;\nhttp://www.leetleech.org/images/71155142867223485434.jpg&lt;/a&gt; &lt;a href=&quot;\nhttp://www.leetleech.org/images/57388850081544724114.jpg&quot; rel=&quot;nofollow&quot; target=&quot;_NEW&quot;&gt;\nhttp://www.leetleech.org/images/57388850081544724114.jpg&lt;/a&gt; &lt;a href=&quot;\nhttp://www.leetleech.org/images/15350424989115843921.jpg&quot; rel=&quot;nofollow&quot; target=&quot;_NEW&quot;&gt;\nhttp://www.leetleech.org/images/15350424989115843921.jpg&lt;/a&gt;\n\n ~ Seed 4 others,Others would seed 4 u ~\n         Be a Gentleman!!\n\n    ______            ______   _______    \n   (  __  \\ |\\     /|(  __  \\ (  ____ \\   \n   | (  \\  )| )   ( || (  \\  )| (    \\/   \n   | |   ) || |   | || |   ) || (__       \n   | |   | || |   | || |   | ||  __)      \n   | |   ) || |   | || |   ) || (         \n _ | (__/  )| (___) || (__/  )| (____/\\ _ \n(_)(______/ (_______)(______/ (_______/(_)\n\n\nA simple THANKS goes a long way... :-)\nAny comments would b appreciated.","torrent":{"xt":"urn:btih:3d6843e19144d9932e47b6ecef752207b6d5a540","amp;dn":"Ice_Age-2_The_Meltdown_%282006%29_HD_480p_AC3_Hindi+%5B.Dude.%5D","amp;tr":["udp%3A%2F%2Ftracker.openbittorrent.com%3A80","udp%3A%2F%2Fopen.demonii.com%3A1337","udp%3A%2F%2Ftracker.coppersurfer.tk%3A6969","udp%3A%2F%2Fexodus.desync.com%3A6969"],"infoHash":"3d6843e19144d9932e47b6ecef752207b6d5a540","infoHashBuffer":{"type":"Buffer","data":[61,104,67,225,145,68,217,147,46,71,182,236,239,117,34,7,182,213,165,64]},"announce":[],"urlList":[]}}